HIERARCHY
ROOT Hips
{
 OFFSET 0.000000 0.000000 0.000000
 CHANNELS 6 Xposition Yposition Zposition Yrotation Xrotation Zrotation
 JOINT Chest
 {
  OFFSET 0.000000 9.585900 0.002600
  CHANNELS 3 Yrotation Xrotation Zrotation
  JOINT Chest2
  {
   OFFSET 0.000000 9.601200 -0.005300
   CHANNELS 3 Yrotation Xrotation Zrotation
   JOINT Chest3
   {
    OFFSET 0.000000 9.561800 0.000000
    CHANNELS 3 Yrotation Xrotation Zrotation
    JOINT Chest4
    {
     OFFSET 0.000000 9.552100 0.000000
     CHANNELS 3 Yrotation Xrotation Zrotation
     JOINT Neck
     {
      OFFSET 0.000000 14.453000 0.000000
      CHANNELS 3 Yrotation Xrotation Zrotation
      JOINT Head
      {
       OFFSET 0.000000 8.936500 -0.011300
       CHANNELS 3 Yrotation Xrotation Zrotation
       End Site
       {
        OFFSET 0.000000 17.073600 -0.006000
       }
      }
     }
     JOINT RightCollar
     {
      OFFSET -2.921100 9.558500 0.000000
      CHANNELS 3 Yrotation Xrotation Zrotation
      JOINT RightShoulder
      {
       OFFSET -13.519700 0.000000 0.000000
       CHANNELS 3 Yrotation Xrotation Zrotation
       JOINT RightElbow
       {
        OFFSET 0.000000 -29.696600 0.000000
        CHANNELS 3 Yrotation Xrotation Zrotation
        JOINT RightWrist
        {
         OFFSET 0.000000 -24.004700 0.000000
         CHANNELS 3 Yrotation Xrotation Zrotation
         End Site
         {
          OFFSET 0.000000 -17.728500 0.000000
         }
        }
       }
      }
     }
     JOINT LeftCollar
     {
      OFFSET 2.921100 9.558500 0.000000
      CHANNELS 3 Yrotation Xrotation Zrotation
      JOINT LeftShoulder
      {
       OFFSET 13.519700 0.000000 0.000000
       CHANNELS 3 Yrotation Xrotation Zrotation
       JOINT LeftElbow
       {
        OFFSET 0.000000 -29.696600 0.000000
        CHANNELS 3 Yrotation Xrotation Zrotation
        JOINT LeftWrist
        {
         OFFSET 0.000000 -24.004700 0.000000
         CHANNELS 3 Yrotation Xrotation Zrotation
         End Site
         {
          OFFSET 0.000000 -17.728500 0.000000
         }
        }
       }
      }
     }
    }
   }
  }
 }
 JOINT RightHip
 {
  OFFSET -7.771700 -0.012900 -0.001300
  CHANNELS 3 Yrotation Xrotation Zrotation
  JOINT RightKnee
  {
   OFFSET 0.000000 -40.869800 0.001200
   CHANNELS 3 Yrotation Xrotation Zrotation
   JOINT RightAnkle
   {
    OFFSET 0.000000 -39.717900 0.002100
    CHANNELS 3 Yrotation Xrotation Zrotation
    JOINT RightToe
    {
     OFFSET 0.000000 -4.965400 11.033500
     CHANNELS 3 Yrotation Xrotation Zrotation
     End Site
     {
      OFFSET 0.000000 -1.423100 5.872300
     }
    }
   }
  }
 }
 JOINT LeftHip
 {
  OFFSET 7.771700 -0.012900 -0.001300
  CHANNELS 3 Yrotation Xrotation Zrotation
  JOINT LeftKnee
  {
   OFFSET 0.000000 -40.869800 0.001200
   CHANNELS 3 Yrotation Xrotation Zrotation
   JOINT LeftAnkle
   {
    OFFSET 0.000000 -39.717900 0.002100
    CHANNELS 3 Yrotation Xrotation Zrotation
    JOINT LeftToe
    {
     OFFSET 0.000000 -4.965400 11.033500
     CHANNELS 3 Yrotation Xrotation Zrotation
     End Site
     {
      OFFSET 0.000000 -1.423100 5.872300
     }
    }
   }
  }
 }
}
MOTION
Frames: 16
Frame Time: 0.008333
0.000000 85.388000 0.000000 0.000000 -5.767877 0.000000 0.000000 11.653817 0.000000 0.000000 -5.885947 0.000000 0.000000 -0.000000 0.000000 0.000000 -0.000000 0.000000 0.000000 12.528835 0.000000 0.000000 0.711642 0.000000 0.000000 -0.000000 0.000000 0.000000 0.000000 -90.000000 0.000000 -2.309062 0.000000 0.000000 2.309062 0.000000 0.000000 -0.000000 0.000000 0.000000 -0.000000 90.000000 0.000000 -2.309062 0.000000 0.000000 2.309062 0.000000 0.000000 8.520406 0.000000 0.000000 1.905762 0.000000 -0.000000 -4.658285 0.000000 0.000000 -0.000000 0.000000 0.000000 8.520406 0.000000 0.000000 1.905762 0.000000 -0.000000 -4.658285 0.000000 0.000000 -0.000000 0.000000
-46.123667 56.063741 43.764505 -168.319628 -29.716893 -10.982299 -3.769562 14.334466 6.334137 -2.362142 8.085084 1.823478 -2.919274 10.117140 2.231905 -2.368432 8.097135 1.821083 2.650023 19.614034 -2.111051 3.305996 -4.879127 -2.860362 2.468697 -4.507746 -5.072367 -0.031358 -12.394776 5.872513 66.044758 -38.216985 -49.478375 12.400856 9.117355 -14.565526 -9.772245 -0.974154 -3.788185 -6.731874 -11.573781 0.082648 -60.030829 -35.328066 63.367239 -5.406849 -10.234170 -4.160893 -24.265555 -28.615839 4.236160 92.278509 88.637226 89.915252 0.685737 -26.418113 -2.249049 -0.102465 0.693320 -0.045748 -17.146501 -45.987732 6.596743 170.268213 72.257082 168.358902 0.295676 -22.295126 -0.615334 -1.730969 -4.493231 -0.758775
-46.121877 56.064678 43.765021 -168.323963 -29.718279 -10.988760 -3.769367 14.342389 6.337566 -2.361958 8.088425 1.823419 -2.919138 10.121474 2.231839 -2.362072 8.088482 1.823372 2.629682 19.616836 -2.125421 3.310165 -4.897415 -2.861545 2.459221 -4.507296 -5.064280 -0.019079 -12.393607 5.862212 65.996491 -38.282041 -49.440428 12.424434 9.112927 -14.626292 -9.772722 -0.974128 -3.786233 -6.716467 -11.568848 0.072789 -60.079965 -35.335942 63.383963 -5.393740 -10.213278 -4.150102 -24.269791 -28.610869 4.245463 92.161126 88.637216 89.797999 0.688320 -26.416812 -2.255004 -0.099828 0.691744 -0.043871 -17.152207 -45.985913 6.606227 170.255058 72.254327 168.349263 0.300246 -22.290408 -0.620821 -1.735478 -4.498088 -0.760401
-46.120568 56.065854 43.765341 -168.324965 -29.721836 -10.993020 -3.765814 14.349683 6.338853 -2.360539 8.098737 1.821080 -2.919175 10.120017 2.235559 -2.361786 8.092413 1.823651 2.628301 19.602553 -2.126539 3.298253 -4.909880 -2.864333 2.461383 -4.523211 -5.052383 -0.013351 -12.390236 5.852577 65.943500 -38.341114 -49.405922 12.447330 9.103242 -14.689304 -9.777101 -0.983888 -3.779440 -6.695042 -11.563380 0.061038 -60.130567 -35.352055 63.406364 -5.395826 -10.188609 -4.143397 -24.274689 -28.604849 4.245969 92.070694 88.635551 89.710519 0.693855 -26.416757 -2.265269 -0.100002 0.690566 -0.041907 -17.154446 -45.982782 6.609091 170.245361 72.252454 168.341687 0.306904 -22.283872 -0.623199 -1.742435 -4.504123 -0.763224
-46.118697 56.067114 43.765828 -168.328934 -29.725158 -10.997634 -3.758970 14.357551 6.344194 -2.360381 8.096648 1.821899 -2.917669 10.127574 2.230925 -2.358987 8.102979 1.820209 2.625998 19.583080 -2.121137 3.278462 -4.920545 -2.869806 2.462828 -4.540950 -5.043769 -0.020573 -12.391215 5.857539 65.899480 -38.397082 -49.372390 12.465231 9.089378 -14.753371 -9.785568 -0.994360 -3.764147 -6.674800 -11.563941 0.050243 -60.168607 -35.359457 63.421419 -5.394912 -10.173512 -4.137896 -24.273247 -28.596765 4.250923 91.862342 88.634861 89.506526 0.692436 -26.423932 -2.271941 -0.099771 0.693071 -0.040132 -17.153896 -45.978986 6.611246 170.220831 72.250548 168.325547 0.306135 -22.280638 -0.630349 -1.742736 -4.507424 -0.763442
-46.118114 56.068379 43.766217 -168.330685 -29.730537 -10.994665 -3.755412 14.364037 6.344443 -2.361716 8.096573 1.819396 -2.916644 10.132259 2.230011 -2.356565 8.103398 1.820872 2.611950 19.583426 -2.126698 3.275545 -4.928251 -2.868351 2.463226 -4.543474 -5.044421 -0.026117 -12.391104 5.867253 65.862480 -38.446357 -49.347711 12.474928 9.071784 -14.815525 -9.793648 -0.992496 -3.759014 -6.655667 -11.561622 0.040209 -60.199181 -35.366019 63.437985 -5.384641 -10.172967 -4.134422 -24.274514 -28.592154 4.245264 91.823520 88.636792 89.466811 0.695647 -26.428085 -2.277389 -0.099584 0.693681 -0.040570 -17.143727 -45.974633 6.597524 170.198904 72.251363 168.311748 0.308389 -22.276619 -0.634319 -1.743100 -4.510023 -0.765991
-46.118804 56.068380 43.768500 -168.322324 -29.722599 -10.986093 -3.764238 14.357339 6.335348 -2.363184 8.097626 1.817775 -2.916069 10.134614 2.229269 -2.352582 8.105252 1.820640 2.602269 19.581020 -2.127557 3.265319 -4.931357 -2.866932 2.457354 -4.547895 -5.043158 -0.038785 -12.375155 5.881864 65.855892 -38.486937 -49.350042 12.476915 9.053560 -14.870977 -9.801677 -0.994819 -3.754960 -6.654754 -11.564860 0.037507 -60.211071 -35.372419 63.439066 -5.370585 -10.168362 -4.126482 -24.284645 -28.604406 4.230931 91.918556 88.633793 89.562448 0.703473 -26.434258 -2.284376 -0.099588 0.694931 -0.040924 -17.137772 -45.985790 6.570146 170.162956 72.255530 168.289162 0.304457 -22.273783 -0.647161 -1.735045 -4.505504 -0.762606
-46.118564 56.069200 43.769502 -168.319163 -29.724375 -10.982065 -3.764621 14.359491 6.332054 -2.362900 8.099640 1.819182 -2.914810 10.136281 2.228294 -2.349596 8.107567 1.819616 2.590973 19.577663 -2.127732 3.253116 -4.935532 -2.864400 2.445618 -4.554246 -5.040897 -0.041398 -12.364255 5.889535 65.844163 -38.518959 -49.352334 12.474234 9.035294 -14.915258 -9.809253 -0.998894 -3.750380 -6.658510 -11.567885 0.035529 -60.208277 -35.383820 63.441067 -5.362408 -10.179723 -4.121700 -24.291346 -28.605201 4.219919 91.966321 88.633373 89.611877 0.715768 -26.436109 -2.293700 -0.099253 0.692254 -0.040787 -17.132456 -45.986985 6.551422 170.137846 72.256563 168.273243 0.309565 -22.265105 -0.657255 -1.735341 -4.509558 -0.762672
-46.117623 56.069939 43.770547 -168.316015 -29.725667 -10.982941 -3.765873 14.361230 6.331945 -2.357323 8.101968 1.820565 -2.907993 10.143194 2.229151 -2.358276 8.101417 1.820676 2.580728 19.578698 -2.128873 3.239611 -4.941592 -2.861969 2.435327 -4.556561 -5.038692 -0.037184 -12.363370 5.891439 65.824153 -38.542358 -49.345867 12.471866 9.015350 -14.945741 -9.806849 -0.996621 -3.750017 -6.667544 -11.573285 0.037134 -60.254388 -35.399034 63.442280 -5.355018 -10.144165 -4.097246 -24.298080 -28.603291 4.220646 91.944507 88.635840 89.586651 0.719273 -26.439741 -2.293703 -0.099103 0.691754 -0.041770 -17.134875 -45.988371 6.542954 170.107229 72.255075 168.249832 0.312741 -22.254464 -0.666060 -1.740284 -4.515987 -0.763415
-46.116452 56.070389 43.771756 -168.314023 -29.725864 -10.985994 -3.762861 14.362397 6.336710 -2.356152 8.104266 1.820716 -2.911627 10.141256 2.228535 -2.352935 8.114793 1.819931 2.564745 19.570602 -2.129049 3.224237 -4.948666 -2.859003 2.425921 -4.570559 -5.036598 -0.038177 -12.363263 5.893812 65.818259 -38.551408 -49.343239 12.466327 8.999424 -14.962237 -9.798673 -1.006320 -3.754422 -6.686895 -11.575687 0.046853 -60.273253 -35.400641 63.448757 -5.346229 -10.138685 -4.091812 -24.300804 -28.601761 4.223150 91.896259 88.639073 89.538961 0.720974 -26.444046 -2.292126 -0.098939 0.694712 -0.044017 -17.139479 -45.989738 6.542816 170.082102 72.253411 168.229791 0.309918 -22.247110 -0.671361 -1.742484 -4.518126 -0.764193
-46.114737 56.070951 43.772366 -168.318518 -29.730622 -10.992103 -3.750146 14.374023 6.349027 -2.356362 8.106296 1.820315 -2.911871 10.143664 2.228138 -2.352091 8.115962 1.820246 2.555072 19.560780 -2.128617 3.198281 -4.950922 -2.850353 2.418487 -4.581853 -5.034615 -0.047699 -12.358131 5.896800 65.826821 -38.563007 -49.347490 12.473897 8.994088 -14.965158 -9.796740 -1.015796 -3.756244 -6.697228 -11.578586 0.057043 -60.283305 -35.402864 63.451814 -5.341593 -10.138004 -4.091126 -24.302074 -28.595115 4.234583 91.848973 88.638429 89.488381 0.715792 -26.444315 -2.288344 -0.098688 0.694637 -0.046428 -17.142710 -45.990369 6.543363 170.048050 72.245645 168.200393 0.331824 -22.225562 -0.676536 -1.762583 -4.536950 -0.772684
-46.114557 56.070454 43.773731 -168.318664 -29.729971 -10.992922 -3.747753 14.377815 6.350387 -2.354811 8.108742 1.821001 -2.903294 10.150274 2.231585 -2.361326 8.104929 1.819827 2.547738 19.561746 -2.128388 3.165341 -4.951918 -2.837255 2.413171 -4.567280 -5.033537 -0.087444 -12.354864 5.906185 65.864822 -38.588295 -49.361676 12.480763 8.984528 -14.971140 -9.794981 -1.016923 -3.759164 -6.704327 -11.580594 0.064009 -60.282248 -35.404235 63.451402 -5.340636 -10.139166 -4.092195 -24.304767 -28.598687 4.238650 91.969141 88.635387 89.604556 0.713719 -26.443701 -2.279976 -0.098677 0.689141 -0.051071 -17.139995 -45.996856 6.526924 169.999846 72.240944 168.166476 0.345006 -22.211310 -0.687996 -1.769288 -4.545644 -0.777860
-46.115691 56.069473 43.774832 -168.318301 -29.731600 -10.989307 -3.747337 14.378653 6.348058 -2.352564 8.110589 1.821741 -2.902387 10.150527 2.232005 -2.357355 8.108905 1.820686 2.505108 19.565352 -2.123086 3.165945 -4.958667 -2.842317 2.404839 -4.564661 -5.035574 -0.099189 -12.358513 5.909558 65.877298 -38.610504 -49.361918 12.481280 8.986666 -15.005047 -9.798267 -1.022587 -3.763476 -6.706606 -11.581029 0.069257 -60.319252 -35.400177 63.456892 -5.335833 -10.130193 -4.085832 -24.307573 -28.603924 4.236603 92.231160 88.630841 89.859882 0.711284 -26.441631 -2.266848 -0.098167 0.684176 -0.058165 -17.136272 -45.999553 6.516158 169.978899 72.239272 168.148243 0.345909 -22.203445 -0.691280 -1.770056 -4.548624 -0.778171
-46.115302 56.068883 43.774519 -168.323851 -29.742982 -10.995899 -3.739856 14.387261 6.358636 -2.347881 8.112995 1.822417 -2.904702 10.150640 2.230269 -2.348470 8.111964 1.822577 2.470496 19.566721 -2.122097 3.177978 -4.962813 -2.848226 2.396704 -4.560563 -5.035141 -0.110966 -12.361151 5.909856 65.879983 -38.633298 -49.366374 12.505186 8.987266 -15.019343 -9.801557 -1.026501 -3.769810 -6.711943 -11.578939 0.078131 -60.335684 -35.403774 63.459568 -5.338918 -10.124535 -4.084179 -24.324787 -28.593721 4.248453 92.396371 88.626206 90.010534 0.708752 -26.437403 -2.262739 -0.098925 0.680067 -0.061547 -17.131838 -45.991373 6.515932 169.956493 72.231609 168.131177 0.356187 -22.193508 -0.693152 -1.779265 -4.559641 -0.783049
-46.115411 56.067063 43.774965 -168.338779 -29.751916 -10.995242 -3.725493 14.391914 6.364313 -2.348314 8.113301 1.822273 -2.902530 10.152532 2.230280 -2.346717 8.112160 1.823780 2.439027 19.573071 -2.121307 3.103172 -4.950217 -2.826561 2.397671 -4.553828 -5.032249 -0.121721 -12.360128 5.902492 65.890892 -38.654190 -49.376456 12.520983 8.986970 -15.038677 -9.801149 -1.027145 -3.773082 -6.711087 -11.581156 0.077211 -60.381522 -35.407946 63.466659 -5.333741 -10.089263 -4.067568 -24.352770 -28.591311 4.261242 92.721625 88.615684 90.312874 0.720610 -26.431156 -2.272701 -0.102497 0.675507 -0.061033 -17.120011 -45.984712 6.518086 169.952050 72.226949 168.127997 0.361668 -22.195071 -0.691256 -1.782682 -4.560505 -0.786812
-46.115204 56.064554 43.775312 -168.341539 -29.761293 -11.002598 -3.719320 14.397956 6.371219 -2.348582 8.114473 1.823561 -2.900927 10.153038 2.231791 -2.347797 8.113701 1.822934 2.413510 19.578382 -2.121149 3.040286 -4.935946 -2.809970 2.398277 -4.547999 -5.028564 -0.127337 -12.359090 5.902485 65.898533 -38.665986 -49.393002 12.534335 8.982092 -15.054344 -9.798761 -1.027383 -3.775979 -6.713427 -11.580303 0.079212 -60.400532 -35.414805 63.476781 -5.332386 -10.078216 -4.069011 -24.356859 -28.586771 4.267365 93.034786 88.614034 90.624007 0.718811 -26.427760 -2.261105 -0.101280 0.671900 -0.072672 -17.125872 -45.979077 6.521720 169.942576 72.218759 168.120309 0.371005 -22.189462 -0.693664 -1.790554 -4.565605 -0.789960
